<svg xmlns="http://www.w3.org/2000/svg" xmlns:xlink="http://www.w3.org/1999/xlink" id="body_1" preserveAspectRatio="xMinYMin meet" viewBox="0 0 793 1121"><defs><clipPath id="1"><path id="" clip-rule="evenodd" transform="matrix(1 0 0 1 0 0)" d="M0 841L0 -0.8900146L0 -0.8900146L595.28 -0.8900146L595.28 -0.8900146L595.28 841L595.28 841L0 841z" /></clipPath></defs><g transform="matrix(1.333333 0 0 1.333333 0 0)"><g clip-path="url(#1)"><path id="68" transform="matrix(1 0 0 -1 0 841)" d="M57.6 711.296L537.675 711.296" stroke="#000000" stroke-width="0.3985" fill="none" /><path id="102" transform="matrix(1 0 0 -1 0 841)" d="M57.6 643.101L537.675 643.101" stroke="#000000" stroke-width="0.3985" fill="none" /><path id="530" transform="matrix(1 0 0 -1 0 841)" d="M57.6 237.058L537.675 237.058" stroke="#000000" stroke-width="0.3985" fill="none" /><path id="715" transform="matrix(1 0 0 -1 0 841)" d="M57.6 122.343L537.675 122.343" stroke="#000000" stroke-width="0.3985" fill="none" /></g></g></svg>